<svg xmlns="http://www.w3.org/2000/svg" width="235" height="93.333"><g fill="#E03C2A"><path d="M34.79 32.937l-1.808-5.353-1.84 5.353h3.647zm-1.07-6.847l3.94 11.296h-1.346l-1.166-3.383H30.8l-1.215 3.383h-1.363l4.055-11.297h1.445zm7.205.13l3.596 6.52 3.618-6.52h1.56v11.166h-1.15v-9.59l-3.726 6.996h-.627L40.5 27.83v9.556h-1.133V26.22zm12.702 5.978v4.04h4.976v1.147h-6.225V26.22h5.846v1.15h-4.597v3.73h3.858v1.098zm8.336-.803h2.874c.97 0 1.955-.495 1.955-1.48v-.87c0-1.017-.936-1.674-1.955-1.674h-2.874v4.03zm3.645 1.05l2.742 4.94h-1.412l-2.676-4.844h-2.3v4.85h-1.25V26.22h4.14c1.806 0 3.185 1.037 3.185 2.825v.87c0 1.447-1.048 2.3-2.43 2.53m5.153-6.225h1.25v11.166h-1.25zm5.22 3.35v4.467c0 1.578 1.214 2.365 2.79 2.365 1.134 0 2.2-.296 2.955-.952l.575.952c-.985.87-2.152 1.148-3.53 1.148-2.3 0-4.04-1.212-4.04-3.514V29.57c0-2.165 1.823-3.514 4.022-3.514 1.578 0 2.628.46 3.53 1.43l-.722.886c-.69-.723-1.644-1.164-2.81-1.164-1.49 0-2.77.884-2.77 2.362m13.902 3.367l-1.807-5.353-1.84 5.354h3.647zm-1.068-6.848l3.94 11.292h-1.348L90.242 34H85.89l-1.215 3.384h-1.363l4.056-11.297h1.446zm13.376.13h1.133v11.163h-1.674l-6.066-9.654v9.654H94.45V26.22h1.627l6.11 9.707zM36.63 50.822c0 2.15-1.71 3.122-3.827 3.122-1.673 0-3.35-.625-4.153-1.988l.92-.74c.575.985 2 1.575 3.17 1.575 1.41 0 2.643-.543 2.643-1.972 0-1.46-1.43-1.77-2.907-2.25-1.986-.62-3.43-1.23-3.43-3.18 0-2.054 1.66-2.925 3.73-2.925 1.557 0 2.74.64 3.595 1.477l-.753.92c-.606-.64-1.708-1.247-2.84-1.247-1.298 0-2.48.475-2.48 1.774 0 1.36 1.494 1.686 2.89 2.115 2.115.622 3.446 1.198 3.446 3.315M45.836 46c0-1.48-1.544-2.38-3.02-2.38h-.28c-1.51 0-3.036.885-3.036 2.364v4.464c0 1.597 1.46 2.365 3.05 2.365h.263c1.545 0 3.02-.79 3.02-2.365V46zm1.25-.016v4.464c0 2.283-2.022 3.513-4.272 3.513h-.262c-2.296 0-4.3-1.193-4.3-3.51V45.99c0-2.187 2.086-3.515 4.286-3.515h.278c2.168 0 4.272 1.346 4.272 3.515m3.08 0v4.464c0 1.576 1.214 2.365 2.79 2.365 1.134 0 2.2-.296 2.955-.952l.576.954c-.988.87-2.154 1.146-3.53 1.146-2.3 0-4.04-1.21-4.04-3.512V45.99c0-2.167 1.82-3.516 4.02-3.516 1.58 0 2.63.46 3.53 1.43l-.723.88c-.688-.72-1.644-1.16-2.808-1.16-1.493 0-2.773.885-2.773 2.365m8.746-3.355h1.25V53.8h-1.25zm5.648 5.978v4.04h4.976V53.8H63.31V42.632h5.843v1.15h-4.596v3.728h3.856v1.1zm5.94-4.828V42.65h8.44v1.15h-3.613v9.998H74.08v-10zm13.1 5.534l-4.123-6.685h1.462l3.3 5.5 3.33-5.5h1.48l-4.204 6.684v4.48H83.6zM101.597 46c0-1.48-1.544-2.38-3.02-2.38h-.28c-1.51 0-3.037.885-3.037 2.364v4.464c0 1.597 1.466 2.365 3.06 2.365h.263c1.545 0 3.02-.79 3.02-2.365V46zm1.25-.016v4.464c0 2.283-2.02 3.513-4.27 3.513h-.264c-2.3 0-4.303-1.193-4.303-3.51V45.99c0-2.187 2.09-3.515 4.29-3.515h.28c2.17 0 4.27 1.346 4.27 3.515m8.09-2.202h-4.6v3.662h3.875v1.1h-3.858v5.25h-1.248V42.63h5.83zm-81.304 15.26h1.248V70.21h-1.246zm12.132 0H42.9V70.21h-1.676l-6.06-9.656v9.655H34.03V59.04h1.625l6.11 9.704zm2.67 1.15v-1.13h8.44v1.15h-3.614v10H48.02v-10zm11.228 4.828v4.04h4.975v1.15h-6.224v-11.17h5.844v1.15h-4.597v3.728h3.858v1.1zM64 64.22h2.873c.97 0 1.958-.495 1.958-1.48v-.87c0-1.017-.934-1.673-1.954-1.673H64v4.023zm3.645 1.052l2.742 4.94h-1.41L66.3 65.368H64v4.844h-1.25V59.04h4.138c1.807 0 3.184 1.036 3.184 2.823v.872c0 1.444-1.05 2.3-2.43 2.53m5.152-6.224h1.25v11.17h-1.25zM84.35 62.41c0-1.477-1.542-2.378-3.02-2.378h-.278c-1.51 0-3.038.882-3.038 2.363v4.467c0 1.59 1.46 2.363 3.056 2.363h.26c1.545 0 3.022-.785 3.022-2.362v-4.45zm1.25-.014v4.467c0 2.28-2.02 3.51-4.27 3.51h-.263c-2.3 0-4.304-1.192-4.304-3.51v-4.465c0-2.183 2.085-3.515 4.285-3.515h.278c2.17 0 4.273 1.342 4.273 3.512m3.504 1.822h2.873c.97 0 1.955-.495 1.955-1.48v-.87c0-1.017-.938-1.673-1.956-1.673h-2.874v4.025zm3.647 1.052l2.74 4.94h-1.41l-2.674-4.843h-2.3v4.844H87.86V59.04h4.138c1.804 0 3.184 1.036 3.184 2.823v.872c0 1.444-1.05 2.3-2.428 2.53M35.594 78.97c0-1.578-1.38-2.364-2.954-2.364h-2.2v8.884h2.102c1.642 0 3.055-.726 3.055-2.365l-.002-4.156zm-2.955-3.515c2.33 0 4.2 1.184 4.2 3.515v4.155c0 2.378-1.956 3.496-4.305 3.496H29.2V75.46h3.437zm7.71 5.975v4.04h4.972v1.15H39.1V75.456h5.846v1.15H40.35v3.728h3.858v1.098zm14.51 2.22c0 2.148-1.71 3.116-3.828 3.116-1.674 0-3.35-.623-4.154-1.986l.92-.735c.574.983 2.002 1.574 3.17 1.574 1.412 0 2.644-.54 2.644-1.97 0-1.468-1.43-1.78-2.906-2.25-1.99-.63-3.43-1.23-3.43-3.19 0-2.05 1.655-2.92 3.725-2.92 1.56 0 2.743.64 3.598 1.48l-.758.914c-.607-.643-1.71-1.25-2.84-1.25-1.298 0-2.48.48-2.48 1.774 0 1.367 1.493 1.692 2.89 2.12 2.117.623 3.446 1.197 3.446 3.317m2.475-8.193h1.25V86.62h-1.25zm8.208 5.368h4.02v4.68c-1.083.66-2.117 1.28-3.972 1.28-2.396 0-4.287-1.36-4.287-3.514V78.8c0-2.067 1.97-3.514 4.27-3.514 1.38 0 2.694.458 3.55 1.346l-.656.936c-.69-.676-1.82-1.134-2.89-1.134-1.577 0-3.02 1.018-3.02 2.362v4.468c0 1.443 1.36 2.365 3.036 2.365 1.23 0 2.005-.28 2.728-.725v-3.02h-2.775V80.82zm14.148-5.368h1.135V86.62h-1.67l-6.062-9.655v9.656h-1.132V75.46h1.627l6.108 9.705zm5.068 5.975v4.04h4.974v1.15h-6.22V75.455h5.844v1.15h-4.596v3.728h3.856v1.098zm8.34-.804h2.87c.97 0 1.954-.493 1.954-1.48v-.87c0-1.018-.937-1.67-1.954-1.67H93.09v4.02zm3.642 1.052l2.74 4.94h-1.41l-2.676-4.85h-2.298v4.848h-1.25v-11.16h4.138c1.807 0 3.184 1.037 3.184 2.824v.87c0 1.445-1.048 2.3-2.428 2.53m12.147 1.972c0 2.145-1.71 3.113-3.826 3.113-1.675 0-3.35-.623-4.15-1.986l.92-.736c.574.984 2 1.575 3.17 1.575 1.41 0 2.642-.54 2.642-1.97 0-1.465-1.43-1.776-2.907-2.25-1.987-.626-3.43-1.23-3.43-3.19 0-2.05 1.657-2.92 3.727-2.92 1.56 0 2.74.64 3.598 1.48l-.756.917c-.607-.643-1.71-1.25-2.84-1.25-1.298 0-2.48.48-2.48 1.774 0 1.367 1.494 1.692 2.89 2.12 2.116.623 3.447 1.197 3.447 3.317m35.866-1.19v-21.01c0-3.1-1.526-4.486-4.785-4.573h-.464v-.995h1.533c1.744-.008 2.55-.58 2.55-1.67 0-.334-.094-.717-.24-1.194l-2.48-7.105h-2.236c-3.432 0-5.054 1.338-5.054 4.585v32.02c0 2.332.878 3.666 2.68 4.22h5.797c1.827-.556 2.706-1.9 2.706-4.27m22.447-9.21c0-12.855-4.668-16.378-9.93-16.378h-5.063c-1.405.01-1.78.54-1.78 2.15v24.106c0 1.84.918 3.065 2.662 3.602h7.034c5.424-1.34 7.073-6.887 7.073-13.478M122.79 45.9h-.183v40.826h2.584c1.83-.55 2.71-1.885 2.71-4.222V50.487c0-3.248-1.622-4.586-5.106-4.586"/><path d="M131.243 3.822l-8.636 22.22V44.91h17.906l-4.69-13.448-3.312 8.697h-1.174l6.1-15.97h1.908l8.32 24.034c2.167 6.21 6.307 7.577 11.287 7.577 4.71 0 7.03-2.814 7.03-5.87 0-1.284-.43-3.01-1.765-4.342-3.53-3.484-9.495-2.72-13.505-6.726-1.576-1.577-2.67-3.82-2.67-6.682 0-4.726 3.29-8.638 8.113-8.638 3.527 0 6.103 1.906 7.538 1.906 1.05 0 2.196-.664 2.818-1.81h.585l.478 9.067h-.54c-.615-1.048-1.665-2.84-3.53-4.697-2.19-2.197-4.77-3.487-7.253-3.487-2.144 0-5.437 1.106-5.437 4.94 0 1.34.52 2.82 1.572 3.87 3.577 3.576 10.306 2.72 14.79 7.202 1.48 1.48 2.928 3.725 2.928 6.298 0 5.3-3.295 8.724-7.804 9.573 6.758 1.833 10.977 8.226 10.977 16.17 0 5.633-2.414 11.59-8.485 14.154h21.688l20.598-53.96-75.826-28.942z"/></g></svg>