<?xml version="1.0" encoding="utf-8"?>
<!-- Generator: Adobe Illustrator 24.1.0, SVG Export Plug-In . SVG Version: 6.00 Build 0)  -->
<svg version="1.1" id="Layer_1" xmlns="http://www.w3.org/2000/svg" xmlns:xlink="http://www.w3.org/1999/xlink" x="0px" y="0px"
	 viewBox="0 0 70.3887939 17.9758301" enable-background="new 0 0 70.3887939 17.9758301" xml:space="preserve">
<g>
	<path fill="#4D4D4F" d="M67.7389984,16.2507935c0,0.9490356-0.776001,1.7250366-1.7249908,1.7250366H1.723999
		C0.776001,17.9758301,0,17.1998291,0,16.2507935V1.7548218c0-0.9489746,0.776001-1.7249756,1.723999-1.7249756h64.2900085
		c0.9489899,0,1.7249908,0.776001,1.7249908,1.7249756V16.2507935z M66.0140076,17.2457886
		c0.548996,0,0.9949951-0.4469604,0.9949951-0.9949951V1.7548218c0-0.5490112-0.4459991-0.9949951-0.9949951-0.9949951H1.723999
		c-0.5479889,0-0.9949951,0.4459839-0.9949951,0.9949951v14.4959717c0,0.5480347,0.4470062,0.9949951,0.9949951,0.9949951
		H66.0140076z"/>
	<path fill="#231F20" d="M68.7348022,0.8280029C68.7348022,0.3720093,69.1078033,0,69.5677948,0
		c0.4560089,0,0.8209991,0.3720093,0.8209991,0.8280029c0,0.4599609-0.3649902,0.8319702-0.8209991,0.8319702
		C69.1078033,1.6599731,68.7348022,1.2879639,68.7348022,0.8280029 M70.2588043,0.8280029
		c0-0.4030151-0.2890015-0.7189941-0.6910095-0.7189941c-0.4059906,0-0.7009888,0.315979-0.7009888,0.7189941
		c0,0.4069824,0.2949982,0.7219849,0.7009888,0.7219849C69.9698029,1.5499878,70.2588043,1.2349854,70.2588043,0.8280029
		 M69.9808044,1.2919922h-0.1350098l-0.2649994-0.427002h-0.2089996v0.427002h-0.1129913v-0.927002h0.4049988
		c0.2449951,0,0.3289948,0.0930176,0.3289948,0.2460327c0,0.1809692-0.128006,0.25-0.2919922,0.2539673L69.9808044,1.2919922z
		 M69.5458069,0.7749634c0.1319885,0,0.3249969,0.0220337,0.3249969-0.1659546c0-0.1450195-0.1190033-0.1630249-0.2340088-0.1630249
		h-0.2649994v0.3289795H69.5458069z"/>
	<g>
		<path fill="#4D4D4F" d="M30.9976959,4.0452881c-5.9489899,0-6.1289978,0.5759888-6.1289978,4.9119873
			c0,4.3469849,0.1800079,4.9240112,6.1289978,4.9240112c5.9630127,0,6.155014-0.5770264,6.155014-4.9240112
			C37.15271,4.6212769,36.9607086,4.0452881,30.9976959,4.0452881 M33.65271,11.9972534
			c-0.4550018,0.3440552-1.2190094,0.4210205-2.655014,0.4210205c-1.4379883,0-2.1919861-0.0769653-2.6459961-0.4210205
			c-0.4389954-0.3289795-0.4920044-1.3659668-0.4920044-3.0359497c0-1.65802,0.053009-2.6970215,0.4920044-3.0289917
			c0.45401-0.3359985,1.2080078-0.4220581,2.6459961-0.4220581c1.4360046,0,2.2000122,0.0860596,2.655014,0.4220581
			c0.4529877,0.3319702,0.493988,1.3709717,0.493988,3.0289917C34.146698,10.6312866,34.1056976,11.6682739,33.65271,11.9972534"/>
		<path fill="#4D4D4F" d="M43.2095032,11.9281006c-0.1170044,0-0.20401-0.105957-0.20401-0.2259521V7.302124
			c0-1.8839722-1.0249939-2.9890137-2.8089905-3.0720215c-0.0720062,0-0.2000122-0.0219727-0.2670135,0.0250244
			C39.861496,4.3131104,39.832489,4.3851318,39.832489,4.4711304v7.7109985c0,0.9589844,0.5970001,1.5189819,1.6630096,1.5189819
			h6.9669952c0.4860077,0,0.8820038-0.407959,0.8820038-0.9019775c0-0.4790039-0.3959961-0.8710327-0.8820038-0.8710327H43.2095032z
			"/>
		<path fill="#4D4D4F" d="M14.4198151,12.3112793c1.1859894,0,5.8349915,1.2340088,5.993988,1.28302
			c0.5090027,0.1270142,0.973999-0.0490112,1.2430115-0.257019c0.2589874-0.2209473,0.5299988-0.6139526,0.5299988-1.1119995
			V4.4713135c0-0.0869751-0.0370026-0.15802-0.1040039-0.2160034c-0.0680084-0.0469971-0.1909943-0.0250244-0.2689972-0.0250244
			c-1.7689972,0.0830078-2.7940063,1.1880493-2.7940063,3.0720215v3.8710327c0,0.1239624-0.1210022,0.2529907-0.2639923,0.2209473
			c-0.8160095-0.2119751-3.102005-0.7630005-4.3359985-0.7769775c-1.2420044,0.0139771-3.5400085,0.5650024-4.3490143,0.7769775
			c-0.1380005,0.0320435-0.2649994-0.0969849-0.2649994-0.2209473V7.3023071c0-1.8839722-1.0219879-2.9890137-2.7879944-3.0720215
			c-0.0890045,0-0.2149963-0.0219727-0.2830048,0.0250244c-0.071991,0.0579834-0.1059875,0.1290283-0.1059875,0.2160034v7.7539673
			c0,0.4980469,0.2749939,0.8910522,0.5319977,1.1119995c0.2749939,0.2080078,0.7409973,0.3840332,1.2559967,0.257019
			C8.5648041,13.5452881,13.2118073,12.3112793,14.4198151,12.3112793"/>
		<path fill="#4D4D4F" d="M50.4291077,5.7589722c0-0.8379517,0.6899872-1.5289917,1.5219879-1.5289917h9.3509979
			c0.0559998,0,0.131012,0.0250244,0.1800079,0.0840454c0.0330048,0.0529785,0.0330048,0.1569824,0.0289917,0.242981
			c-0.0779877,1.5100098-1.0369873,2.3610229-2.6529999,2.3729858h-5.1589966c-0.1259918,0-0.2200012,0.1060181-0.2200012,0.2299805
			v1.4430542c0,0.1189575,0.0940094,0.2179565,0.2200012,0.2179565h5.4320068c0.4810028,0,0.8880005,0.3990479,0.8880005,0.8770142
			c0,0.4979858-0.4069977,0.9050293-0.8880005,0.9050293h-5.4320068c-0.1259918,0-0.2200012,0.0949707-0.2200012,0.2059937
			v1.3590088c0,0.8389893-0.6799927,1.532959-1.5279999,1.532959c-0.8320007,0-1.5219879-0.6939697-1.5219879-1.532959V5.7589722z"
			/>
		<path fill-rule="evenodd" clip-rule="evenodd" fill="#BF311A" d="M14.6250153,2.6386108
			c0.0779877-0.0749512,0.2069855-0.0269775,0.220993,0.0810547c0.0529938,0.3839722,0.2550049,1.151001,1.0200043,1.9369507
			c1.0269928,1.0550537,2.2039948,2.276001,0.9649963,3.757019c-0.076004,0.0930176-0.227005,0.0390015-0.2319946-0.0809937
			c-0.0130005-0.3540039-0.1090088-0.8980103-0.5350037-1.2249756c0,0-0.0960083-0.0820313-0.2259979-0.0300293
			c-0.0570068,0.0230103-0.1090088,0.0770264-0.1300049,0.197998c-0.0590057,0.335022,0.276001,1.9160156-1.3540039,2.242981
			c-1.6299896,0.3260498-2.4609985-0.9589844-2.4609985-0.9589844s-1.3099976-1.802002,0.6920013-3.7399902
			c0.0740051-0.0720215,0.197998-0.0269775,0.2039948,0.0759888c0.0230103,0.4440308,0.1269989,1.3179932,0.576004,1.4810181
			c0.5039978,0.1829834,0.8059998-0.2910156,0.8590088-0.5150146c0.0529938-0.223999,0.0589905-0.7630005-0.1990051-1.7080078
			C13.8470001,3.5006714,14.3320007,2.9186401,14.6250153,2.6386108"/>
	</g>
</g>
<g>
</g>
<g>
</g>
<g>
</g>
<g>
</g>
<g>
</g>
<g>
</g>
</svg>
