<svg xmlns="http://www.w3.org/2000/svg" viewBox="0 0 200 200" width="200" height="200" preserveAspectRatio="xMidYMid meet" style="width: 100%; height: 100%; transform: translate3d(0px, 0px, 0px);"><defs><clipPath id="__lottie_element_33"><rect width="200" height="200" x="0" y="0"></rect></clipPath></defs><g clip-path="url(#__lottie_element_33)"><g transform="matrix(1,0,0,1,100,100)" opacity="1" style="display: block;"><g opacity="1" transform="matrix(1,0,0,1,0,0)"><path fill="rgb(255,255,255)" fill-opacity="1" d=" M100,-100 C100,-100 100,100 100,100 C100,100 -100,100 -100,100 C-100,100 -100,-100 -100,-100 C-100,-100 100,-100 100,-100z"></path></g></g><g transform="matrix(1,0,0,1,37.64200210571289,20.946006774902344)" opacity="1" style="display: block;"><g opacity="1" transform="matrix(1,0,0,1,62.29800033569336,79.07599639892578)"><path stroke-linecap="round" stroke-linejoin="round" fill-opacity="0" stroke="rgb(72,72,72)" stroke-opacity="1" stroke-width="2" d=" M57.29800033569336,21.613000869750977 C57.29800033569336,21.613000869750977 57.29800033569336,74.0770034790039 57.29800033569336,74.0770034790039 C57.29800033569336,74.0770034790039 -57.29800033569336,74.0770034790039 -57.29800033569336,74.0770034790039 C-57.29800033569336,74.0770034790039 -57.29800033569336,-74.0770034790039 -57.29800033569336,-74.0770034790039 C-57.29800033569336,-74.0770034790039 35.577999114990234,-74.0770034790039 35.577999114990234,-74.0770034790039 C35.577999114990234,-74.0770034790039 57.29800033569336,-53.90399932861328 57.29800033569336,-53.90399932861328 C57.29800033569336,-53.90399932861328 57.29800033569336,-21.80500030517578 57.29800033569336,-21.80500030517578 C57.29800033569336,-21.80500030517578 57.29800033569336,21.613000869750977 57.29800033569336,21.613000869750977z"></path></g><g opacity="1" transform="matrix(1,0,0,1,108.73500061035156,15.086000442504883)"><path stroke-linecap="round" stroke-linejoin="round" fill-opacity="0" stroke="rgb(72,72,72)" stroke-opacity="1" stroke-width="2" d=" M-10.859000205993652,-10.086000442504883 C-10.859000205993652,-10.086000442504883 -10.859000205993652,10.086000442504883 -10.859000205993652,10.086000442504883 C-10.859000205993652,10.086000442504883 10.859000205993652,10.086000442504883 10.859000205993652,10.086000442504883"></path></g></g><g transform="matrix(1,0,0,1,65.72899627685547,46.72299575805664)" opacity="1" style="display: block;"><g opacity="1" transform="matrix(1,0,0,1,0,0)"><path stroke-linecap="round" stroke-linejoin="round" fill-opacity="0" stroke="rgb(72,72,72)" stroke-opacity="1" stroke-width="2" d=" M1,34.60300064086914 C1,34.60300064086914 1,38.69200134277344 1,38.69200134277344"></path></g><g opacity="1" transform="matrix(1,0,0,1,0,0)"><path stroke-linecap="round" stroke-linejoin="round" fill-opacity="0" stroke="rgb(72,72,72)" stroke-opacity="1" stroke-width="2" d=" M1,45.80400085449219 C1,45.80400085449219 1,49.893001556396484 1,49.893001556396484"></path></g><g opacity="1" transform="matrix(1,0,0,1,0,0)"><path stroke-linecap="round" stroke-linejoin="round" fill-opacity="0" stroke="rgb(72,72,72)" stroke-opacity="1" stroke-width="2" d=" M1,34.60300064086914 C1,34.60300064086914 1,38.69200134277344 1,38.69200134277344"></path></g><g opacity="1" transform="matrix(1,0,0,1,0,0)"><path stroke-linecap="round" stroke-linejoin="round" fill-opacity="0" stroke="rgb(72,72,72)" stroke-opacity="1" stroke-width="2" d=" M1,23.402000427246094 C1,23.402000427246094 1,27.490999221801758 1,27.490999221801758"></path></g><g opacity="1" transform="matrix(1,0,0,1,0,0)"><path stroke-linecap="round" stroke-linejoin="round" fill-opacity="0" stroke="rgb(72,72,72)" stroke-opacity="1" stroke-width="2" d=" M1,12.201000213623047 C1,12.201000213623047 1,16.290000915527344 1,16.290000915527344"></path></g><g opacity="1" transform="matrix(1,0,0,1,0,0)"><path stroke-linecap="round" stroke-linejoin="round" fill-opacity="0" stroke="rgb(72,72,72)" stroke-opacity="1" stroke-width="2" d=" M1,1 C1,1 1,5.089000225067139 1,5.089000225067139"></path></g><g opacity="1" transform="matrix(1,0,0,1,0,0)"><path stroke-linecap="round" stroke-linejoin="round" fill-opacity="0" stroke="rgb(72,72,72)" stroke-opacity="1" stroke-width="2" d=" M1,12.201000213623047 C1,12.201000213623047 1,16.290000915527344 1,16.290000915527344"></path></g><g opacity="1" transform="matrix(1,0,0,1,0,0)"><path stroke-linecap="round" stroke-linejoin="round" fill-opacity="0" stroke="rgb(72,72,72)" stroke-opacity="1" stroke-width="2" d=" M1,57.00400161743164 C1,57.00400161743164 1,61.09299850463867 1,61.09299850463867"></path></g><g opacity="1" transform="matrix(1,0,0,1,0,0)"><path stroke-linecap="round" stroke-linejoin="round" fill-opacity="0" stroke="rgb(72,72,72)" stroke-opacity="1" stroke-width="2" d=" M1,68.20600128173828 C1,68.20600128173828 1,72.29499816894531 1,72.29499816894531"></path></g><g opacity="1" transform="matrix(1,0,0,1,0,0)"><path stroke-linecap="round" stroke-linejoin="round" fill-opacity="0" stroke="rgb(72,72,72)" stroke-opacity="1" stroke-width="2" d=" M1,79.40599822998047 C1,79.40599822998047 1,83.49500274658203 1,83.49500274658203"></path></g><g opacity="1" transform="matrix(1,0,0,1,0,0)"><path stroke-linecap="round" stroke-linejoin="round" fill-opacity="0" stroke="rgb(72,72,72)" stroke-opacity="1" stroke-width="2" d=" M1,90.60700225830078 C1,90.60700225830078 1,94.6969985961914 1,94.6969985961914"></path></g><g opacity="1" transform="matrix(1,0,0,1,0,0)"><path stroke-linecap="round" stroke-linejoin="round" fill-opacity="0" stroke="rgb(72,72,72)" stroke-opacity="1" stroke-width="2" d=" M1,101.80799865722656 C1,101.80799865722656 1,105.89700317382812 1,105.89700317382812"></path></g></g><g transform="matrix(1,0,0,1,53.90599822998047,148.7969970703125)" opacity="1" style="display: block;"><g opacity="1" transform="matrix(1,0,0,1,12.822999954223633,8.911999702453613)"><path stroke-linecap="round" stroke-linejoin="round" fill-opacity="0" stroke="rgb(72,72,72)" stroke-opacity="1" stroke-width="2" d=" M-7.822999954223633,-3.9110000133514404 C-7.822999954223633,-3.9110000133514404 0,3.9110000133514404 0,3.9110000133514404 C0,3.9110000133514404 7.822999954223633,-3.9110000133514404 7.822999954223633,-3.9110000133514404"></path></g></g><g transform="matrix(1,0,0,1,53.90599822998047,33.37900161743164)" opacity="1" style="display: block;"><g opacity="1" transform="matrix(1,0,0,1,12.822999954223633,8.911999702453613)"><path stroke-linecap="round" stroke-linejoin="round" fill-opacity="0" stroke="rgb(72,72,72)" stroke-opacity="1" stroke-width="2" d=" M-7.822999954223633,3.9110000133514404 C-7.822999954223633,3.9110000133514404 0,-3.9110000133514404 0,-3.9110000133514404 C0,-3.9110000133514404 7.822999954223633,3.9110000133514404 7.822999954223633,3.9110000133514404"></path></g></g><g transform="matrix(1,0,0,1,93.70800018310547,60.925994873046875)" opacity="1" style="display: block;"><g opacity="1" transform="matrix(1,0,0,1,43.176998138427734,40.69599914550781)"><path fill="rgb(255,255,255)" fill-opacity="1" d=" M10.102999687194824,14.395999908447266 C10.102999687194824,14.395999908447266 10.102999687194824,32.45199966430664 10.102999687194824,32.45199966430664 C10.102999687194824,32.45199966430664 38.176998138427734,-1.621999979019165 38.176998138427734,-1.621999979019165 C38.176998138427734,-1.621999979019165 10.102999687194824,-35.69599914550781 10.102999687194824,-35.69599914550781 C10.102999687194824,-35.69599914550781 10.102999687194824,-17.29599952697754 10.102999687194824,-17.29599952697754 C-5.639999866485596,-17.29599952697754 -38.176998138427734,-5.00600004196167 -36.8849983215332,35.69599914550781 C-28.11400032043457,17.94099998474121 -5.742000102996826,14.395999908447266 10.102999687194824,14.395999908447266z"></path><path stroke-linecap="round" stroke-linejoin="round" fill-opacity="0" stroke="rgb(255,255,255)" stroke-opacity="1" stroke-width="10" d=" M10.102999687194824,14.395999908447266 C10.102999687194824,14.395999908447266 10.102999687194824,32.45199966430664 10.102999687194824,32.45199966430664 C10.102999687194824,32.45199966430664 38.176998138427734,-1.621999979019165 38.176998138427734,-1.621999979019165 C38.176998138427734,-1.621999979019165 10.102999687194824,-35.69599914550781 10.102999687194824,-35.69599914550781 C10.102999687194824,-35.69599914550781 10.102999687194824,-17.29599952697754 10.102999687194824,-17.29599952697754 C-5.639999866485596,-17.29599952697754 -38.176998138427734,-5.00600004196167 -36.8849983215332,35.69599914550781 C-28.11400032043457,17.94099998474121 -5.742000102996826,14.395999908447266 10.102999687194824,14.395999908447266z"></path><path stroke-linecap="round" stroke-linejoin="round" fill-opacity="0" stroke="rgb(135,138,141)" stroke-opacity="1" stroke-width="2" d=" M10.102999687194824,14.395999908447266 C10.102999687194824,14.395999908447266 10.102999687194824,32.45199966430664 10.102999687194824,32.45199966430664 C10.102999687194824,32.45199966430664 38.176998138427734,-1.621999979019165 38.176998138427734,-1.621999979019165 C38.176998138427734,-1.621999979019165 10.102999687194824,-35.69599914550781 10.102999687194824,-35.69599914550781 C10.102999687194824,-35.69599914550781 10.102999687194824,-17.29599952697754 10.102999687194824,-17.29599952697754 C-5.639999866485596,-17.29599952697754 -38.176998138427734,-5.00600004196167 -36.8849983215332,35.69599914550781 C-28.11400032043457,17.94099998474121 -5.742000102996826,14.395999908447266 10.102999687194824,14.395999908447266z"></path></g></g><g style="display: none;"><path stroke-linecap="butt" stroke-linejoin="miter" fill-opacity="0" stroke-miterlimit="4"></path><g><path stroke-linecap="round" stroke-linejoin="round" fill-opacity="0"></path></g><g><path stroke-linecap="round" stroke-linejoin="round" fill-opacity="0"></path></g><g><path stroke-linecap="round" stroke-linejoin="round" fill-opacity="0"></path></g><g><path stroke-linecap="round" stroke-linejoin="round" fill-opacity="0"></path></g><g><path stroke-linecap="round" stroke-linejoin="round" fill-opacity="0"></path></g></g><g style="display: none;"><path stroke-linecap="butt" stroke-linejoin="miter" fill-opacity="0" stroke-miterlimit="4"></path><g><path stroke-linecap="round" stroke-linejoin="round" fill-opacity="0"></path></g><g><path stroke-linecap="round" stroke-linejoin="round" fill-opacity="0"></path></g><g><path stroke-linecap="round" stroke-linejoin="round" fill-opacity="0"></path></g><g><path stroke-linecap="round" stroke-linejoin="round" fill-opacity="0"></path></g><g><path stroke-linecap="round" stroke-linejoin="round" fill-opacity="0"></path></g></g><g style="display: none;"><g><path stroke-linecap="round" stroke-linejoin="round" fill-opacity="0"></path></g></g><g style="display: none;"><g><path stroke-linecap="round" stroke-linejoin="round" fill-opacity="0"></path></g></g><g style="display: none;"><g><path></path><path stroke-linecap="round" stroke-linejoin="round" fill-opacity="0"></path></g></g><g style="display: none;"><g><path stroke-linecap="round" stroke-linejoin="round" fill-opacity="0"></path></g></g></g></svg>